# Blender 4.3.2
# www.blender.org
mtllib room.mtl
o Cube
v -11.775733 -0.104489 11.775733
v -11.775733 0.104489 11.775733
v -11.775733 -0.104489 -11.775733
v -11.775733 0.104489 -11.775733
v 11.775733 -0.104489 11.775733
v 11.775733 0.104489 11.775733
v 11.775733 -0.104489 -11.775733
v 11.775733 0.104489 -11.775733
vn -1.0000 -0.0000 -0.0000
vn -0.0000 -0.0000 -1.0000
vn 1.0000 -0.0000 -0.0000
vn -0.0000 -0.0000 1.0000
vn -0.0000 -1.0000 -0.0000
vn -0.0000 1.0000 -0.0000
vt 0.118602 -1.478248
vt 0.918602 -1.478248
vt 0.918602 -0.678248
vt 0.118602 -0.678248
vt 0.918602 0.121752
vt 0.118602 0.121752
vt 0.918602 0.921752
vt 0.118602 0.921752
vt 0.918602 1.721752
vt 0.118602 1.721752
vt -0.681398 0.121752
vt -0.681398 0.921752
vt 1.718602 0.121752
vt 1.718602 0.921752
s 0
usemtl Material.001
f 1/1/1 2/2/1 4/3/1 3/4/1
f 3/4/2 4/3/2 8/5/2 7/6/2
f 7/6/3 8/5/3 6/7/3 5/8/3
f 5/8/4 6/7/4 2/9/4 1/10/4
f 3/11/5 7/6/5 5/8/5 1/12/5
f 8/5/6 4/13/6 2/14/6 6/7/6
o Cube.001
v -11.775733 0.104489 -11.984713
v -11.775733 0.104489 -11.775733
v -11.775733 23.655956 -11.984712
v -11.775733 23.655956 -11.775732
v 11.775733 0.104489 -11.984713
v 11.775733 0.104489 -11.775733
v 11.775733 23.655956 -11.984712
v 11.775733 23.655956 -11.775732
vn -1.0000 -0.0000 -0.0000
vn -0.0000 1.0000 -0.0000
vn 1.0000 -0.0000 -0.0000
vn -0.0000 -1.0000 -0.0000
vn -0.0000 -0.0000 -1.0000
vn -0.0000 -0.0000 1.0000
vt -0.371847 -2.987387
vt 1.371847 -2.987387
vt 1.371847 -1.243693
vt -0.371847 -1.243693
vt 1.371847 0.500000
vt -0.371847 0.500000
vt 1.371847 2.243693
vt -0.371847 2.243693
vt 1.371847 3.987387
vt -0.371847 3.987387
vt -2.115540 0.500000
vt -2.115540 2.243693
vt 3.115540 0.500000
vt 3.115540 2.243693
s 0
usemtl Material.002
f 9/15/7 10/16/7 12/17/7 11/18/7
f 11/18/8 12/17/8 16/19/8 15/20/8
f 15/20/9 16/19/9 14/21/9 13/22/9
f 13/22/10 14/21/10 10/23/10 9/24/10
f 11/25/11 15/20/11 13/22/11 9/26/11
f 16/19/12 12/27/12 10/28/12 14/21/12
o Cube.002
v -11.984712 0.104489 11.775733
v -11.775733 0.104489 11.775733
v -11.984711 23.655956 11.775733
v -11.775732 23.655956 11.775733
v -11.984713 0.104489 -11.775733
v -11.775734 0.104489 -11.775733
v -11.984712 23.655956 -11.775733
v -11.775733 23.655956 -11.775733
vn -0.0000 -0.0000 1.0000
vn -0.0000 1.0000 -0.0000
vn -0.0000 -0.0000 -1.0000
vn -0.0000 -1.0000 -0.0000
vn -1.0000 -0.0000 -0.0000
vn 1.0000 -0.0000 -0.0000
vt -0.278052 -2.612207
vt 1.278052 -2.612207
vt 1.278052 -1.056103
vt -0.278052 -1.056103
vt 1.278052 0.500000
vt -0.278052 0.500000
vt 1.278052 2.056103
vt -0.278052 2.056103
vt 1.278052 3.612207
vt -0.278052 3.612207
vt -1.834155 0.500000
vt -1.834155 2.056103
vt 2.834155 0.500000
vt 2.834155 2.056103
s 0
usemtl Material.002
f 17/29/13 18/30/13 20/31/13 19/32/13
f 19/32/14 20/31/14 24/33/14 23/34/14
f 23/34/15 24/33/15 22/35/15 21/36/15
f 21/36/16 22/35/16 18/37/16 17/38/16
f 19/39/17 23/34/17 21/36/17 17/40/17
f 24/33/18 20/41/18 18/42/18 22/35/18
